<svg xmlns="http://www.w3.org/2000/svg" viewBox="0 0 64 64">
  <rect width="64" height="64" rx="12" fill="#0f172a"/>
  <rect x="11" y="12" width="42" height="40" rx="5" fill="#0f766e"/>
  <path d="M18 20h28M18 32h28M18 44h28M22 20v24M34 20v24M46 20v24" stroke="#99f6e4" stroke-width="3" stroke-linecap="round"/>
  <circle cx="22" cy="20" r="3.6" fill="#ccfbf1"/>
  <circle cx="34" cy="32" r="3.6" fill="#fde047"/>
  <circle cx="46" cy="44" r="3.6" fill="#f97316"/>
  <circle cx="46" cy="20" r="3.6" fill="#22d3ee"/>
  <path d="M18 49c8-1 13-7 17-15 4-7 8-14 16-17" fill="none" stroke="#ef4444" stroke-width="4" stroke-linecap="round"/>
  <path d="M18 49c8-1 13-7 17-15 4-7 8-14 16-17" fill="none" stroke="#fef3c7" stroke-width="1.8" stroke-linecap="round"/>
</svg>
